<?xml version="1.0" encoding="UTF-8"?>
<svg version="1.1" xmlns="http://www.w3.org/2000/svg" width="2000" height="2000">
<path d="M0 0 C660 0 1320 0 2000 0 C2000 660 2000 1320 2000 2000 C1340 2000 680 2000 0 2000 C0 1340 0 680 0 0 Z " fill="#C1FE72" transform="translate(0,0)"/>
<path d="M0 0 C660 0 1320 0 2000 0 C2000 660 2000 1320 2000 2000 C1340 2000 680 2000 0 2000 C0 1340 0 680 0 0 Z M926 28 C923.79628911 28.16096925 921.59251481 28.32107334 919.38867188 28.48022461 C905.00807 29.54462791 890.69076741 31.02759204 876.375 32.75 C875.29825012 32.87839264 874.22150024 33.00678528 873.11212158 33.1390686 C856.19286904 35.17300966 839.56513542 37.80771977 822.90234375 41.38769531 C819.07235606 42.19570416 815.22957905 42.88183029 811.375 43.5625 C804.35189126 44.85907392 797.43724703 46.53819832 790.50244141 48.23461914 C785.9304034 49.34257215 781.4106874 50.32778547 776.75 51 C771.17416133 51.83954389 765.91714125 53.4101917 760.53564453 55.04956055 C755.92584603 56.45017929 751.3134027 57.69265859 746.625 58.8125 C728.10380828 63.32148262 709.94379547 69.27186896 691.8125 75.125 C690.65713242 75.49637085 690.65713242 75.49637085 689.47842407 75.87524414 C675.52993659 80.36700684 661.77083729 85.24544238 648.3125 91.0625 C642.84719896 93.39818421 637.37563383 95.657386 631.8125 97.75 C627.70587837 99.30035337 623.82157962 101.01410294 619.93359375 103.04296875 C616.97872992 104.50547711 613.91490159 105.66304482 610.84765625 106.8671875 C602.63117582 110.13574624 594.61279819 113.49446638 587 118 C585.3125001 118.73172955 583.62421655 119.46179143 581.92944336 120.17651367 C565.03167533 127.38848021 548.8039934 136.13626592 532.921875 145.33984375 C530.65782824 146.62623395 528.4104213 147.81872553 526.0625 148.9375 C520.1377279 151.81164476 514.57933564 155.39935523 508.95703125 158.81640625 C507.13352706 159.91924412 505.30334286 161.00948501 503.46875 162.09375 C484.46518028 173.34297434 465.79241549 185.29127466 447.76171875 198.046875 C445.58305435 199.58765604 443.39756785 201.1168669 441.20703125 202.640625 C431.59731196 209.3457053 422.22460681 216.30757489 412.96191406 223.48339844 C411.12310311 224.90483866 409.27813085 226.31768167 407.4296875 227.7265625 C397.66101751 235.17808578 388.19114597 242.95530419 378.8359375 250.91601562 C375.43075204 253.80880943 371.98283219 256.63807238 368.5 259.4375 C363.12496587 263.80814819 358.07176298 268.48118387 353.01171875 273.20703125 C350.59346824 275.4623045 348.13145939 277.65510265 345.625 279.8125 C342.54859683 282.47056382 339.69164128 285.28496561 336.84594727 288.18652344 C335.19210174 289.81127738 333.49841752 291.29705567 331.72265625 292.78515625 C325.51316671 298.18614083 319.77065833 304.08064073 313.96362305 309.90600586 C311.94235732 311.9326298 309.91580426 313.95385547 307.88867188 315.97460938 C299.36070235 324.49488239 299.36070235 324.49488239 291.31469727 333.46704102 C289.48877447 335.59609751 287.51214778 337.54791633 285.5 339.5 C282.10731601 342.85256779 278.90899316 346.29475682 275.8046875 349.9140625 C273.78348724 352.25025501 271.70621161 354.52964851 269.625 356.8125 C264.89246872 362.05839061 260.43902217 367.50554599 256 373 C254.58446752 374.73009526 253.16778547 376.45925055 251.75 378.1875 C251.01265625 379.08984375 250.2753125 379.9921875 249.515625 380.921875 C248.1724164 382.56542838 246.82880268 384.20865362 245.48242188 385.84960938 C239.27496238 393.41658467 233.13151492 401.00221511 227.3125 408.875 C225.57683299 411.22049596 223.82757508 413.55181634 222.0625 415.875 C216.81766255 422.78951137 211.74025331 429.7379524 206.9921875 437.0078125 C204.73647348 440.39580649 202.37989672 443.69875159 200 447 C185.5228838 467.16523413 172.70063779 488.47741652 160.22460938 509.92333984 C159.22957357 511.61069522 158.19130703 513.27250218 157.140625 514.92578125 C155.7590723 517.04360003 155.7590723 517.04360003 156 520 C155.34 520 154.68 520 154 520 C147.08847806 532.53875515 140.55159592 545.27095518 134 558 C133.61054199 558.75410156 133.22108398 559.50820313 132.81982422 560.28515625 C127.7150321 570.19460821 122.99618826 580.29060903 118.25 590.375 C117.92121857 591.07176849 117.59243713 591.76853699 117.25369263 592.48641968 C113.96604461 599.46166063 110.72329265 606.42895511 107.93066406 613.62109375 C106.89729783 616.26252096 105.80561572 618.87496992 104.703125 621.48828125 C99.19285193 634.56246333 93.9224635 647.69348492 89 661 C88.6405127 661.96486328 88.28102539 662.92972656 87.91064453 663.92382812 C82.3934854 678.77348334 77.47300397 693.74204323 72.92724609 708.91601562 C68.83893513 722.51357859 68.83893513 722.51357859 66.90795898 728.23657227 C66.07674401 730.766425 65.61499624 733.05865803 65.25 735.6875 C64.34011473 741.04490447 62.76162815 746.04234683 61.0625 751.1875 C58.74931181 758.25182232 57.08454314 765.16645306 55.84375 772.5078125 C54.82840769 778.2323336 53.38775965 783.85669572 52 789.5 C49.97645667 797.76911589 48.12529951 806.0111675 46.6484375 814.39453125 C45.99028984 818.05399085 45.21784046 821.67734962 44.4375 825.3125 C43.14359186 831.68818209 42.36166168 838.03059486 41.82202148 844.51293945 C41.35423593 849.73161767 40.51171452 854.8419412 39.5625 859.9921875 C38.07760206 868.12689948 37.06076324 876.26032783 36.22949219 884.48535156 C36.00697053 886.68121423 35.77387736 888.87573482 35.5390625 891.0703125 C35.09448332 895.29586589 34.69412485 899.52478374 34.30422974 903.75570679 C34.0857229 906.08585453 33.85888683 908.41522683 33.62667847 910.74404907 C31.04628623 936.67758776 30.47555423 962.45885079 30.55377579 988.51007843 C30.56262566 991.73326668 30.56612698 994.95642755 30.56869507 998.17962646 C30.62510806 1044.33526921 31.69471106 1090.81112736 40.18359375 1136.31640625 C41.49088666 1143.54944572 42.4594072 1150.84251266 43.46655273 1158.12231445 C44.41729517 1164.78342594 45.71542694 1171.2536957 47.28857422 1177.79418945 C47.96416199 1180.83850759 48.45360008 1183.84602537 48.8828125 1186.93359375 C50.16976526 1195.76315108 52.21572792 1204.42753758 54.20361328 1213.12036133 C54.87405178 1216.05834473 55.53311872 1218.99872638 56.19140625 1221.93945312 C58.16248559 1230.65416656 60.12973438 1239.24258677 63.21972656 1247.63964844 C64.04992515 1250.15102514 64.49501111 1252.5728331 64.875 1255.1875 C65.7913496 1260.8396741 67.65883021 1265.97345215 69.61889648 1271.32788086 C71.41408198 1276.25828945 73.00170267 1281.2038402 74.4375 1286.25 C79.46626775 1303.77541835 85.6788172 1320.90683799 92 1338 C92.4319165 1339.175625 92.4319165 1339.175625 92.87255859 1340.375 C95.42095037 1347.31120159 97.97966259 1354.2119939 101.0703125 1360.9296875 C102.11740445 1363.26144689 103.06201862 1365.62232628 104 1368 C106.74754187 1374.93275101 109.85044927 1381.67941879 113 1388.4375 C114.73320876 1392.17553979 116.39470606 1395.90516573 117.875 1399.75 C122.75466953 1412.16915893 128.96177492 1424.0128382 135.23046875 1435.7734375 C137.24379318 1439.55454117 139.21869577 1443.35354698 141.17578125 1447.1640625 C147.05735419 1458.60735929 153.09518666 1469.86449982 159.73779297 1480.8828125 C161.61253484 1484.02744723 163.43101629 1487.20377478 165.25390625 1490.37866211 C169.65613505 1498.0443279 174.16838997 1505.59515047 179 1513 C180.09359969 1514.70912302 181.18715233 1516.41827654 182.27954102 1518.12817383 C194.08838395 1536.57964652 206.56314423 1554.58269809 219.63476562 1572.16259766 C221.05781525 1574.07781072 222.47410975 1575.99791921 223.890625 1577.91796875 C230.4721354 1586.80306194 237.31934451 1595.43368839 244.34130859 1603.97363281 C246.03631993 1606.04437084 247.71727238 1608.12580086 249.39453125 1610.2109375 C254.74412378 1616.85514846 260.14036676 1623.38360317 265.9140625 1629.66796875 C268.07852631 1632.08779065 270.10160813 1634.58635778 272.125 1637.125 C277.66315872 1643.96796051 283.74679084 1650.28344075 289.80615234 1656.66259766 C291.91263916 1658.9069227 293.99123934 1661.17517641 296.06687927 1663.44799805 C302.81022212 1670.81703891 309.78145827 1677.93567393 316.85595703 1684.98632812 C318.76582994 1686.89078505 320.67022149 1688.80060819 322.57421875 1690.7109375 C328.00186286 1696.14153518 333.41044551 1701.5330734 339.26416016 1706.50927734 C342.38217884 1709.18700197 345.33019532 1712.04823861 348.3125 1714.875 C353.51103431 1719.76849848 358.81990353 1724.4111012 364.40234375 1728.8671875 C367.13554886 1731.11129275 369.72136593 1733.46867753 372.3125 1735.875 C377.5174946 1740.66418904 382.98758556 1745.00546011 388.57421875 1749.33203125 C391.69781681 1751.752187 394.76247875 1754.23746501 397.8125 1756.75 C410.16449272 1766.90528264 423.02124498 1776.3909979 436.06689453 1785.63037109 C438.12838489 1787.09096226 440.18720407 1788.55527682 442.24609375 1790.01953125 C443.70557171 1791.05490949 445.16520468 1792.09006926 446.625 1793.125 C447.60859497 1793.82459839 447.60859497 1793.82459839 448.61206055 1794.53833008 C481.54359145 1817.82761865 516.48201621 1837.96903096 552 1857 C552.97130859 1857.52062012 553.94261719 1858.04124023 554.94335938 1858.57763672 C567.12093581 1865.0753734 579.41967086 1871.25158844 591.9375 1877.0625 C593.0920166 1877.59866943 594.2465332 1878.13483887 595.43603516 1878.68725586 C601.19888327 1881.33540373 606.98417469 1883.84757893 612.88891602 1886.16186523 C616.31405746 1887.52170224 619.63286413 1889.09387307 622.96875 1890.65625 C626.35293137 1892.15645411 629.77574947 1893.52858849 633.21630859 1894.89355469 C636.09851122 1896.03915566 638.97346043 1897.20165414 641.84765625 1898.3671875 C658.93649441 1905.27483102 676.12629066 1911.43174534 693.62915039 1917.19775391 C697.94213721 1918.62239106 702.23541757 1920.06250187 706.48046875 1921.6796875 C709.55001644 1922.83119374 712.5509937 1923.65718222 715.73828125 1924.40234375 C718.52137142 1925.13777172 721.21514671 1926.06494583 723.9375 1927 C728.06223704 1928.4005637 732.08561763 1929.51180231 736.34765625 1930.375 C739.98906023 1931.23306279 743.5476793 1932.34869843 747.125 1933.4375 C753.8012591 1935.45449229 760.45615872 1936.968971 767.31640625 1938.25390625 C771.11645343 1939.02358707 774.82303337 1939.97733885 778.5625 1941 C785.66298049 1942.94050398 792.78740284 1944.53699855 800 1946 C800.75442383 1946.1546875 801.50884766 1946.309375 802.28613281 1946.46875 C812.94203403 1948.65195185 823.60975584 1950.72149341 834.33398438 1952.54199219 C837.53212621 1953.09141655 840.72668493 1953.66022838 843.921875 1954.2265625 C856.31792719 1956.39301788 868.62668382 1958.35058626 881.1862793 1959.26196289 C890.2902375 1959.9436736 899.30636082 1961.16457343 908.33569336 1962.50415039 C936.08905716 1966.36253097 964.14951739 1966.32615758 992.10839844 1966.26074219 C997.01558246 1966.24934858 1001.92254955 1966.25613984 1006.82972622 1966.2676096 C1037.40539902 1966.32846575 1067.54757499 1965.15623463 1097.9375 1961.5625 C1099.88860675 1961.33724444 1101.83977989 1961.11256325 1103.79101562 1960.88842773 C1107.55376954 1960.45490765 1111.3159241 1960.01667901 1115.07763672 1959.57421875 C1119.09273448 1959.10314759 1123.10977011 1958.65422122 1127.12890625 1958.21875 C1139.49621542 1956.85545597 1151.77692302 1955.01573338 1164.0625 1953.0625 C1165.22712769 1952.88015305 1165.22712769 1952.88015305 1166.4152832 1952.69412231 C1175.93412054 1951.19501417 1185.22986031 1949.33070783 1194.54467773 1946.8527832 C1197.70180016 1946.07359656 1200.77701043 1945.53404966 1204 1945.125 C1210.68023671 1944.20212826 1217.15421173 1942.57658334 1223.6875 1940.9375 C1224.76451172 1940.66760254 1225.84152344 1940.39770508 1226.95117188 1940.11962891 C1232.10353553 1938.91699886 1232.10353553 1938.91699886 1237 1937 C1238.66416861 1936.75334644 1240.33151287 1936.52801292 1242 1936.3125 C1248.41060334 1935.29948548 1254.32162123 1933.37347117 1260.41601562 1931.20825195 C1264.81717476 1929.65891438 1269.14719083 1928.48071763 1273.7121582 1927.52294922 C1277.71426582 1926.60815736 1281.59684943 1925.32640765 1285.5 1924.0625 C1286.29019531 1923.81048828 1287.08039063 1923.55847656 1287.89453125 1923.29882812 C1292.47499509 1921.83322963 1297.04150306 1920.32783002 1301.60205078 1918.80151367 C1304.2786079 1917.90687541 1306.95756337 1917.01963858 1309.63671875 1916.1328125 C1330.52237187 1909.25824902 1330.52237187 1909.25824902 1350.9921875 1901.25390625 C1354.20126909 1899.91609431 1357.436846 1898.67063672 1360.6875 1897.4375 C1365.14503795 1895.7393903 1369.51073347 1893.92765373 1373.8515625 1891.953125 C1376.06799811 1890.96983356 1378.30509937 1890.07246105 1380.5625 1889.1875 C1393.53675085 1884.04380764 1406.15173683 1878.12073255 1418.6875 1872 C1419.43513611 1871.63582977 1420.18277222 1871.27165955 1420.95306396 1870.89645386 C1441.43402304 1860.91214201 1461.8392246 1850.78974564 1481.34375 1838.984375 C1483.73323415 1837.56420989 1486.17422175 1836.24838139 1488.625 1834.9375 C1513.16737712 1821.68023379 1536.71430919 1805.95586555 1559.32421875 1789.63671875 C1561.95612881 1787.73993088 1564.60678759 1785.87278176 1567.26953125 1784.01953125 C1574.51100482 1778.97375587 1581.58065188 1773.8734906 1588.34765625 1768.1953125 C1591.23778007 1765.80319234 1594.20173352 1763.52013971 1597.1875 1761.25 C1608.09507579 1752.92170851 1618.68956602 1744.21120815 1629.06665039 1735.23217773 C1632.44822966 1732.31003381 1635.87987578 1729.47422348 1639.375 1726.6875 C1646.06785384 1721.25078295 1652.26095004 1715.28822466 1658.50585938 1709.35058594 C1660.41478876 1707.55152837 1662.33261574 1705.76471558 1664.25976562 1703.98535156 C1673.31806319 1695.6096659 1682.13568097 1687.02053733 1690.84619141 1678.28417969 C1693.02261269 1676.10233092 1695.20442239 1673.92597087 1697.38671875 1671.75 C1698.79980037 1670.33625848 1700.21257223 1668.92220726 1701.625 1667.5078125 C1702.2636499 1666.87118683 1702.9022998 1666.23456116 1703.56030273 1665.5786438 C1707.3412208 1661.77824352 1710.93856244 1657.86555887 1714.43582153 1653.80229187 C1716.84269565 1651.02902159 1719.3632053 1648.36533932 1721.875 1645.6875 C1726.31142769 1640.91935745 1730.50994182 1636.02482743 1734.58984375 1630.9453125 C1737.49031544 1627.40081388 1740.48884765 1623.9504589 1743.5 1620.5 C1755.68030067 1606.5105355 1766.90498509 1591.85236925 1778 1577 C1778.45971191 1576.39212646 1778.91942383 1575.78425293 1779.39306641 1575.15795898 C1782.98497455 1570.40039917 1786.45572748 1565.57025034 1789.875 1560.6875 C1793.30836109 1555.79786715 1796.76410411 1550.93228098 1800.3125 1546.125 C1803.39865855 1541.90050428 1806.24885645 1537.57488695 1809.0234375 1533.140625 C1810.98864528 1530.01804189 1812.99115695 1526.92257716 1815.00317383 1523.83007812 C1820.12401563 1515.95749206 1825.13332926 1508.03293845 1830 1500 C1830.68320313 1498.87851563 1831.36640625 1497.75703125 1832.0703125 1496.6015625 C1838.10901064 1486.64557523 1843.87231007 1476.5360883 1849.62353516 1466.41210938 C1850.82597647 1464.30495786 1852.03928901 1462.20496884 1853.26171875 1460.109375 C1857.08597944 1453.52773971 1860.6369863 1446.87167479 1863.9921875 1440.04321289 C1866.88270926 1434.17041807 1869.98091492 1428.42718326 1873.140625 1422.6953125 C1875.01775849 1419.12431303 1876.46241186 1415.42260461 1877.92871094 1411.66796875 C1879.79478029 1407.02065657 1881.90782664 1402.48639208 1884 1397.9375 C1884.85452819 1396.07178012 1885.70869901 1394.20589652 1886.5625 1392.33984375 C1887.17919556 1390.9933374 1887.17919556 1390.9933374 1887.80834961 1389.61962891 C1888.92955415 1387.15486252 1890.03324947 1384.68324158 1891.12890625 1382.20703125 C1892.68225612 1378.69699054 1894.29759604 1375.22060006 1895.9375 1371.75 C1898.62707448 1365.92258863 1901.00685031 1360.0379243 1903.24121094 1354.02294922 C1904.08587562 1351.77105361 1904.95261154 1349.52827447 1905.8203125 1347.28515625 C1910.93043762 1333.97963912 1915.6325847 1320.54518862 1920.25 1307.0625 C1920.54800507 1306.19580688 1920.84601013 1305.32911377 1921.15304565 1304.43615723 C1924.65831849 1294.22745014 1927.97125703 1283.99691781 1930.93603516 1273.61767578 C1931.90877466 1270.3101829 1932.97910538 1267.06336556 1934.125 1263.8125 C1935.9600104 1258.43958955 1937.10262866 1253.02799264 1938.2265625 1247.46875 C1938.94473893 1244.24783754 1939.8445527 1241.19505979 1940.875 1238.0625 C1943.75345285 1229.0742277 1945.50151901 1219.81446946 1947.44482422 1210.58886719 C1948.12386481 1207.42239999 1948.86760101 1204.27355917 1949.625 1201.125 C1950.85517709 1195.84890716 1951.83657131 1190.54424119 1952.74365234 1185.20507812 C1953.45621319 1181.02448275 1954.21750106 1176.86070328 1955.0546875 1172.703125 C1961.52393256 1140.13214149 1966.49959089 1106.73900843 1967.81396484 1073.53393555 C1968 1071 1968 1071 1968.47872925 1068.27835083 C1969.47339135 1062.02276999 1969.68444045 1055.67454663 1970.046875 1049.35546875 C1970.09124443 1048.5875469 1970.13561386 1047.81962505 1970.18132782 1047.02843285 C1971.09047738 1030.94406914 1971.31044691 1014.88983462 1971.26074219 998.78295898 C1971.24931745 995.04951882 1971.25616876 991.31636315 1971.26762486 987.58293247 C1971.33984582 959.73726373 1969.71614586 932.17516063 1966.77734375 904.48046875 C1966.24664381 899.46538713 1965.76122547 894.44920413 1965.31640625 889.42578125 C1962.84310035 861.68297275 1958.90893708 834.50979545 1952.6484375 807.3671875 C1951.28828435 801.44635675 1950.13442221 795.50867687 1949.04222107 789.53459167 C1948.18042162 784.85689779 1947.15684534 780.28349399 1945.9375 775.6875 C1944.78807696 771.27169218 1943.74526602 766.87957248 1943 762.375 C1942.08911777 757.01357914 1940.59162254 751.89053258 1939.05078125 746.6796875 C1938.03312804 743.1160097 1937.16190162 739.54454796 1936.3125 735.9375 C1931.48819019 715.98457831 1924.66425457 696.40461404 1918 677 C1917.7736084 676.34016113 1917.5472168 675.68032227 1917.31396484 675.00048828 C1914.84105738 667.83597256 1912.15023036 660.77388513 1909.30273438 653.7512207 C1907.43472102 649.13314293 1905.66839731 644.48352876 1903.9375 639.8125 C1900.66794782 631.02233281 1897.27348588 622.33261123 1892.96484375 613.9921875 C1891.45812235 610.88114332 1890.25601571 607.65604027 1889 604.4375 C1887.81851493 601.55763015 1886.42883855 598.82919954 1885 596.06640625 C1883.87006444 593.73150034 1882.9342573 591.35708043 1882 588.9375 C1880.82294436 585.91869848 1879.58335555 583.10357064 1877.9375 580.3125 C1876.31385424 577.53658951 1875.04712284 574.8087415 1873.80151367 571.85424805 C1865.44470846 552.52134047 1855.03141653 533.27631005 1844.28662109 515.16943359 C1842.58554742 512.30117161 1840.89729962 509.42542349 1839.20703125 506.55078125 C1837.78499476 504.13734704 1836.3614204 501.72482307 1834.9375 499.3125 C1834.59761047 498.73604736 1834.25772095 498.15959473 1833.90753174 497.56567383 C1827.35670524 486.46681626 1820.46870707 475.63606115 1813.29150391 464.93359375 C1811.76458885 462.64755079 1810.24747286 460.35513154 1808.73046875 458.0625 C1798.30074904 442.31836467 1787.40556318 427.04890985 1776 412 C1775.45375977 411.278125 1774.90751953 410.55625 1774.34472656 409.8125 C1765.56353241 398.21989506 1756.50876596 386.91451587 1747.08544922 375.8371582 C1744.1736578 372.40921794 1741.32218278 368.94003041 1738.5 365.4375 C1734.44174232 360.44831582 1730.15484434 355.72329385 1725.7734375 351.01953125 C1723.65175119 348.73191819 1721.5888151 346.39913777 1719.5390625 344.046875 C1708.58959547 331.49154534 1696.82658222 319.72229363 1685.0625 307.9375 C1684.3811499 307.25356171 1683.6997998 306.56962341 1682.99780273 305.86495972 C1673.52141754 296.31718026 1673.52141754 296.31718026 1663.53295898 287.31469727 C1661.40390249 285.48877447 1659.45208367 283.51214778 1657.5 281.5 C1653.49263726 277.45181523 1649.33473165 273.69174645 1645 270 C1643.9475354 269.09549552 1642.8954864 268.19050735 1641.84375 267.28515625 C1638.83419712 264.69645762 1635.81814785 262.11546722 1632.79931641 259.53759766 C1631.6391774 258.54620614 1630.47992905 257.55377096 1629.32177734 256.56005859 C1622.69312673 250.87294367 1615.97256763 245.34108361 1609.07885742 239.97753906 C1605.6043381 237.27262168 1602.19100622 234.51249515 1598.8125 231.6875 C1591.55515653 225.71275037 1583.92022656 220.23909014 1576.32763672 214.70166016 C1574.2139332 213.15639966 1572.10713863 211.60243601 1570.00390625 210.04296875 C1548.82025437 194.35516698 1526.7446603 180.0270825 1504.22070312 166.34912109 C1502.81752021 165.49665971 1501.41507703 164.64297844 1500.01367188 163.78759766 C1490.64101584 158.0677364 1481.12429734 152.64819797 1471.49658203 147.36962891 C1468.83772716 145.91097686 1466.18259219 144.44567423 1463.52734375 142.98046875 C1454.59787131 138.06709306 1445.6513867 133.23296912 1436.50366211 128.73706055 C1432.25855961 126.64788535 1428.09141893 124.45327396 1423.9375 122.1875 C1419.68318712 119.8717287 1415.47393227 117.8422074 1411 116 C1409.72497277 115.36248638 1408.45438204 114.71605026 1407.1875 114.0625 C1404.3379059 112.61559496 1401.47503691 111.36289485 1398.49609375 110.20703125 C1392.54458067 107.85055304 1386.71789448 105.23664109 1380.875 102.625 C1372.57691768 98.94506009 1364.27585753 95.44746265 1355.73828125 92.3671875 C1352.5701168 91.20850667 1349.4455225 89.97513725 1346.31982422 88.70776367 C1334.85631155 84.09558607 1323.11534935 80.29549415 1311.38183594 76.43896484 C1309.88863536 75.94770211 1308.39547107 75.45632907 1306.90234375 74.96484375 C1306.16790543 74.72345169 1305.4334671 74.48205963 1304.67677307 74.23335266 C1298.71065706 72.26138725 1292.7858921 70.18122368 1286.88438416 68.02354431 C1280.91741603 65.87380068 1274.86266882 64.36516594 1268.68359375 62.95703125 C1265.99615212 62.2588094 1263.6207767 61.50895451 1261.05859375 60.50390625 C1256.98181071 58.92295196 1252.90238505 57.99165659 1248.625 57.125 C1242.19597354 55.76649948 1235.87796975 54.18866994 1229.5625 52.375 C1224.02827827 50.79303852 1218.58377318 49.44496342 1212.89453125 48.52734375 C1209.09898724 47.83584788 1205.37244022 46.91288549 1201.625 46 C1195.71862548 44.57496588 1189.87342112 43.46178432 1183.8515625 42.625 C1180.73326179 42.11898771 1177.67439523 41.53009538 1174.5859375 40.875 C1161.21767552 38.04087253 1147.99551571 36.06758991 1134.40234375 34.68359375 C1127.91909031 34.01738023 1121.49128147 33.11032983 1115.05541992 32.08935547 C1112.70499578 31.71665937 1110.35288337 31.35684804 1108 31 C1106.99324219 30.84241211 1105.98648437 30.68482422 1104.94921875 30.52246094 C1092.84956634 28.75483015 1080.70250191 28.03688976 1068.5 27.375 C1067.30489807 27.30963043 1066.10979614 27.24426086 1064.878479 27.1769104 C1042.40473873 25.99125205 1019.9485657 25.69742394 997.44662476 25.68903351 C994.91517141 25.68752395 992.38374253 25.68262469 989.85229492 25.67718506 C968.47550679 25.64279502 947.31695989 26.33565562 926 28 Z " fill="#FEFFFE" transform="translate(0,0)"/>
<path d="M0 0 C66.33 0 132.66 0 201 0 C201 198.66 201 397.32 201 602 C267.33 602 333.66 602 402 602 C402 734.66 402 867.32 402 1004 C335.67 1004 269.34 1004 201 1004 C201 871.67 201 739.34 201 603 C134.67 603 68.34 603 0 603 C0 404.01 0 205.02 0 0 Z " fill="#FEFFFE" transform="translate(516,359)"/>
<path d="M0 0 C66.33 0 132.66 0 201 0 C201 198.99 201 397.98 201 603 C134.67 603 68.34 603 0 603 C0 404.01 0 205.02 0 0 Z " fill="#FEFFFE" transform="translate(1320,359)"/>
<path d="M0 0 C66.33 0 132.66 0 201 0 C201 132.66 201 265.32 201 402 C134.67 402 68.34 402 0 402 C0 269.34 0 136.68 0 0 Z " fill="#FEFFFE" transform="translate(918,1363)"/>
<path d="M0 0 C66.33 0 132.66 0 201 0 C201 132.33 201 264.66 201 401 C134.67 401 68.34 401 0 401 C0 268.67 0 136.34 0 0 Z " fill="#FEFFFE" transform="translate(1119,962)"/>
<path d="M0 0 C76.56 0 153.12 0 232 0 C232 76.89 232 153.78 232 233 C155.44 233 78.88 233 0 233 C0 156.11 0 79.22 0 0 Z " fill="#1800AC" transform="translate(902,480)"/>
</svg>
